<svg width="375" height="807" viewBox="0 0 375 807" fill="none" xmlns="http://www.w3.org/2000/svg">
<g clip-path="url(#clip0_2858_44068)">
<rect width="375" height="807" fill="white"/>
<g opacity="0.6">
<path d="M493 -7H-1186V921H493V-7Z" fill="url(#paint0_linear_2858_44068)"/>
<path d="M-96.0344 623.861H493.436V601.028C493.436 601.028 282.998 593.901 245.34 604.148C207.682 614.396 175.931 595.592 137.377 601.028C98.8229 606.464 33.3602 610.526 15.6253 611.332C-2.10966 612.138 -111.74 624.247 -96.0457 623.861H-96.0344Z" fill="white"/>
<path d="M493.438 762.493V920.667H-1187.07L-1187.24 867.193L-1187.65 735.824L-1188 626.187C-1108.36 623.736 -991.521 627.923 -855.913 636.151C-591.703 652.186 -256.259 683.553 14.0734 711.028C286.923 738.741 493.438 762.493 493.438 762.493Z" fill="#D2E4F9"/>
<path d="M218.614 866.864C217.695 885.941 207.705 903.974 189.812 920.667H-1101.12C-1137.2 903.837 -1166.33 885.862 -1187.24 867.193L-1187.65 735.824C-1130.35 689.432 -1010.67 654.082 -855.914 636.151C-591.704 652.187 -256.26 683.554 14.0725 711.028C143.002 754.617 221.369 810.009 218.614 866.864Z" fill="#C2DBF9"/>
<path d="M226.962 691.237C226.962 691.237 227.064 665.51 259.336 668.324C259.336 668.324 260.073 658.156 273.567 662.945C273.567 662.945 288.909 637.627 321.442 653.821C321.442 653.821 331.591 647.591 339.948 655.954C339.948 655.954 384.989 642.756 404.629 681.341C404.629 681.341 425.164 676.155 433.794 691.237C433.794 691.237 461.802 686.799 464.592 713.014L226.973 691.237H226.962Z" fill="#D4DFE8"/>
<path d="M301.891 678.23H284.871V690.43H301.891V678.23Z" fill="#757382"/>
<path d="M355.198 678.23H344.993V690.43H355.198V678.23Z" fill="#68677A"/>
<path d="M323.436 678.23H301.88V690.43H323.436V678.23Z" fill="#67697A"/>
<path d="M344.993 678.23H323.436V690.43H344.993V678.23Z" fill="#636375"/>
<path d="M305.566 679.932H304.999V683.336H305.566V679.932Z" fill="#D6E2ED"/>
<path d="M308.695 679.932H308.412V683.336H308.695V679.932Z" fill="#D6E2ED"/>
<path d="M308.411 680.5H305.576V682.769H308.411V680.5Z" fill="#8C8FAF"/>
<path d="M311.528 680.5H308.693V682.769H311.528V680.5Z" fill="#8C8FAF"/>
<path d="M312.095 679.932H311.528V683.336H312.095V679.932Z" fill="#D6E2ED"/>
<path d="M312.096 683.337V682.77H305.009V683.337H312.096Z" fill="#D6E2ED"/>
<path d="M312.096 680.488V679.921H305.009V680.488H312.096Z" fill="#B2B7D1"/>
<path d="M305.566 679.932H304.999V681.634H305.566V679.932Z" fill="#B2B7D1"/>
<path d="M312.095 679.932H311.528V681.634H312.095V679.932Z" fill="#B2B7D1"/>
<path d="M308.695 679.932H308.412V681.634H308.695V679.932Z" fill="#B2B7D1"/>
<path d="M308.411 680.5H305.576V681.351H308.411V680.5Z" fill="#777791"/>
<path d="M311.528 680.5H308.693V681.351H311.528V680.5Z" fill="#777791"/>
<path d="M320.033 618.334V678.22H280.605C297.909 654.093 294.224 618.334 294.224 618.334H320.033Z" fill="#EAF1F9"/>
<path d="M306.11 618.334C306.11 618.334 304.114 665.453 298.036 678.22H280.619C297.923 654.093 294.238 618.334 294.238 618.334H306.11Z" fill="#FCFAEB"/>
<path d="M320.035 618.334V678.219H359.462C342.158 654.093 345.844 618.334 345.844 618.334H320.035Z" fill="#DCECFF"/>
<path d="M333.97 618.334C333.97 618.334 335.966 665.453 342.043 678.219H359.461C342.157 654.093 345.842 618.334 345.842 618.334H333.97Z" fill="#EBF3F7"/>
<path d="M347.589 618.334H292.479C291.55 618.334 290.824 617.551 290.892 616.621C291.912 602.696 304.125 587.376 319.218 586.842C319.49 586.842 319.762 586.831 320.034 586.831C335.49 586.831 348.145 602.458 349.177 616.632C349.245 617.551 348.508 618.346 347.589 618.346V618.334Z" fill="#FCFAEB"/>
<path d="M347.589 618.334H308.638C308.558 613.398 309.091 596.716 319.218 586.842C319.49 586.842 319.762 586.831 320.034 586.831C335.49 586.831 348.144 602.458 349.176 616.632C349.244 617.551 348.507 618.346 347.589 618.346V618.334Z" fill="#EAF1F9"/>
<path d="M305.995 607.554C308.268 607.554 310.111 605.709 310.111 603.434C310.111 601.159 308.268 599.315 305.995 599.315C303.722 599.315 301.879 601.159 301.879 603.434C301.879 605.709 303.722 607.554 305.995 607.554Z" fill="#3B434C"/>
<path d="M305.996 605.851C307.487 605.851 308.695 604.642 308.695 603.15C308.695 601.658 307.487 600.449 305.996 600.449C304.506 600.449 303.297 601.658 303.297 603.15C303.297 604.642 304.506 605.851 305.996 605.851Z" fill="#A7B3C6"/>
<path d="M304.611 604.149L303.273 612.558L299.917 612.025L299.361 611.934L296.005 611.4L295.449 611.31L292.093 610.776L291.537 610.685L291.446 611.242L290.857 614.93L290.766 615.486L290.176 619.174L290.085 619.73L289.496 623.418L289.405 623.974L288.815 627.663L288.725 628.219L288.135 631.907L288.044 632.463L287.455 636.151L287.364 636.707L286.774 640.396L286.684 640.952L286.094 644.64L286.003 645.196L285.414 648.884L285.323 649.44L284.733 653.129L284.642 653.685L284.053 657.373L283.962 657.929L283.372 661.617L283.282 662.173L283.837 662.264L287.194 662.797L287.75 662.888L291.106 663.422L291.662 663.512L295.018 664.046L297.263 664.397L297.354 663.841L297.944 660.153L298.034 659.597L298.624 655.909L298.715 655.353L299.304 651.665L299.395 651.108L299.985 647.42L300.076 646.864L300.665 643.176L300.756 642.62L301.346 638.932L301.436 638.376L302.026 634.687L302.117 634.131L302.706 630.443L302.797 629.887L303.387 626.199L303.477 625.643L304.067 621.954L304.158 621.398L304.747 617.71L304.838 617.154L305.428 613.466L305.518 612.91L306.857 604.501L304.611 604.149ZM299.259 612.49L298.669 616.178L295.313 615.645L295.903 611.956L299.259 612.49ZM289.224 653.912L289.813 650.223L293.17 650.757L292.58 654.445L289.224 653.912ZM292.501 655.012L291.911 658.701L288.555 658.167L289.144 654.479L292.501 655.012ZM289.904 649.667L290.494 645.979L293.85 646.512L293.261 650.201L289.904 649.667ZM290.584 645.412L291.174 641.723L294.531 642.257L293.941 645.945L290.584 645.412ZM291.265 641.156L291.854 637.468L295.211 638.001L294.621 641.689L291.265 641.156ZM291.945 636.9L292.535 633.212L295.891 633.745L295.302 637.434L291.945 636.9ZM292.625 632.645L293.215 628.956L296.572 629.49L295.982 633.178L292.625 632.645ZM293.306 628.389L293.895 624.701L297.252 625.234L296.662 628.922L293.306 628.389ZM293.986 624.133L294.576 620.445L297.932 620.978L297.343 624.667L293.986 624.133ZM294.667 619.878L295.256 616.189L298.613 616.723L298.023 620.411L294.667 619.878ZM292.013 611.31L295.37 611.843L294.78 615.531L291.424 614.998L292.013 611.31ZM291.333 615.565L294.689 616.099L294.1 619.787L290.743 619.254L291.333 615.565ZM290.652 619.821L294.009 620.354L293.419 624.043L290.063 623.509L290.652 619.821ZM289.972 624.077L293.329 624.61L292.739 628.298L289.382 627.765L289.972 624.077ZM289.292 628.332L292.648 628.866L292.059 632.554L288.702 632.021L289.292 628.332ZM288.611 632.588L291.968 633.121L291.378 636.81L288.022 636.276L288.611 632.588ZM287.931 636.844L291.287 637.377L290.698 641.065L287.341 640.532L287.931 636.844ZM287.251 641.099L290.607 641.633L290.017 645.321L286.661 644.787L287.251 641.099ZM286.57 645.355L289.927 645.888L289.337 649.576L285.981 649.043L286.57 645.355ZM285.89 649.611L289.246 650.144L288.657 653.832L285.3 653.299L285.89 649.611ZM285.209 653.866L288.566 654.4L287.976 658.088L284.62 657.554L285.209 653.866ZM283.951 661.81L284.54 658.122L287.897 658.655L287.307 662.343L283.951 661.81ZM287.874 662.434L288.464 658.746L291.82 659.279L291.231 662.968L287.874 662.434ZM295.154 663.592L291.798 663.058L292.387 659.37L295.744 659.903L295.154 663.592ZM295.835 659.336L292.478 658.803L293.068 655.115L296.424 655.648L295.835 659.336ZM296.515 655.08L293.158 654.547L293.748 650.859L297.105 651.392L296.515 655.08ZM297.195 650.825L293.839 650.291L294.428 646.603L297.785 647.137L297.195 650.825ZM297.876 646.569L294.519 646.036L295.109 642.348L298.465 642.881L297.876 646.569ZM298.556 642.313L295.2 641.78L295.789 638.092L299.146 638.625L298.556 642.313ZM299.236 638.058L295.88 637.524L296.47 633.836L299.826 634.37L299.236 638.058ZM299.917 633.802L296.56 633.269L297.15 629.581L300.506 630.114L299.917 633.802ZM300.597 629.547L297.241 629.013L297.83 625.325L301.187 625.858L300.597 629.547ZM301.277 625.291L297.921 624.758L298.511 621.069L301.867 621.603L301.277 625.291ZM301.958 621.035L298.601 620.502L299.191 616.814L302.548 617.347L301.958 621.035ZM302.638 616.78L299.282 616.246L299.871 612.558L303.228 613.091L302.638 616.78Z" fill="#A7B3C6"/>
<path d="M304.714 601.482L296.311 600.143L296.844 596.784L296.935 596.228L297.468 592.868L297.558 592.312L298.092 588.953L298.182 588.397L297.627 588.306L293.941 587.716L293.386 587.625L289.7 587.035L289.145 586.945L285.459 586.354L284.904 586.264L281.218 585.674L280.663 585.583L276.977 584.993L276.422 584.902L272.736 584.312L272.181 584.221L268.495 583.631L267.94 583.54L264.254 582.95L263.699 582.859L260.014 582.269L259.458 582.178L255.773 581.588L255.217 581.497L251.532 580.907L250.976 580.816L247.291 580.226L246.735 580.135L246.644 580.692L246.111 584.051L246.021 584.607L245.488 587.966L245.397 588.522L244.864 591.881L244.513 594.128L245.068 594.219L248.754 594.809L249.309 594.9L252.994 595.49L253.55 595.581L257.235 596.171L257.791 596.262L261.476 596.852L262.032 596.942L265.717 597.533L266.273 597.623L269.958 598.214L270.514 598.304L274.199 598.894L274.755 598.985L278.44 599.575L278.996 599.666L282.681 600.256L283.237 600.347L286.922 600.937L287.478 601.028L291.163 601.618L291.719 601.709L295.404 602.299L295.96 602.39L304.362 603.729L304.714 601.482ZM296.379 596.125L292.694 595.535L293.227 592.176L296.912 592.766L296.379 596.125ZM254.99 586.082L258.676 586.672L258.142 590.031L254.457 589.441L254.99 586.082ZM253.89 589.362L250.205 588.772L250.738 585.413L254.423 586.003L253.89 589.362ZM259.231 586.763L262.917 587.353L262.384 590.712L258.698 590.122L259.231 586.763ZM263.483 587.444L267.169 588.034L266.636 591.393L262.951 590.803L263.483 587.444ZM267.736 588.125L271.421 588.715L270.888 592.074L267.203 591.484L267.736 588.125ZM271.988 588.806L275.673 589.396L275.14 592.755L271.455 592.165L271.988 588.806ZM276.24 589.487L279.926 590.077L279.393 593.436L275.707 592.846L276.24 589.487ZM280.493 590.167L284.178 590.758L283.645 594.117L279.96 593.527L280.493 590.167ZM284.745 590.848L288.43 591.439L287.897 594.798L284.212 594.208L284.745 590.848ZM288.997 591.529L292.683 592.119L292.15 595.479L288.464 594.888L288.997 591.529ZM297.558 588.874L297.026 592.233L293.34 591.643L293.873 588.284L297.558 588.874ZM293.306 588.193L292.773 591.552L289.088 590.962L289.621 587.603L293.306 588.193ZM289.054 587.512L288.521 590.871L284.836 590.281L285.369 586.922L289.054 587.512ZM284.802 586.831L284.269 590.19L280.583 589.6L281.116 586.241L284.802 586.831ZM280.549 586.15L280.016 589.509L276.331 588.919L276.864 585.56L280.549 586.15ZM276.297 585.469L275.764 588.828L272.079 588.238L272.612 584.879L276.297 585.469ZM272.045 584.788L271.512 588.147L267.826 587.557L268.359 584.198L272.045 584.788ZM267.792 584.107L267.259 587.467L263.574 586.876L264.107 583.517L267.792 584.107ZM263.54 583.427L263.007 586.786L259.322 586.196L259.855 582.836L263.54 583.427ZM259.288 582.746L258.755 586.105L255.07 585.515L255.602 582.156L259.288 582.746ZM255.035 582.065L254.503 585.424L250.817 584.834L251.35 581.475L255.035 582.065ZM247.098 580.805L250.783 581.395L250.25 584.754L246.565 584.164L247.098 580.805ZM246.474 584.732L250.16 585.322L249.627 588.681L245.941 588.091L246.474 584.732ZM245.318 592.017L245.851 588.658L249.536 589.248L249.003 592.607L245.318 592.017ZM249.57 592.698L250.103 589.339L253.788 589.929L253.255 593.288L249.57 592.698ZM253.822 593.379L254.355 590.02L258.04 590.61L257.508 593.969L253.822 593.379ZM258.075 594.06L258.607 590.701L262.293 591.291L261.76 594.65L258.075 594.06ZM262.327 594.741L262.86 591.382L266.545 591.972L266.012 595.331L262.327 594.741ZM266.579 595.422L267.112 592.063L270.797 592.653L270.264 596.012L266.579 595.422ZM270.831 596.103L271.364 592.744L275.05 593.334L274.517 596.693L270.831 596.103ZM275.084 596.784L275.617 593.424L279.302 594.015L278.769 597.374L275.084 596.784ZM279.336 597.465L279.869 594.105L283.554 594.696L283.021 598.055L279.336 597.465ZM283.588 598.145L284.121 594.786L287.807 595.376L287.274 598.736L283.588 598.145ZM287.841 598.826L288.374 595.467L292.059 596.057L291.526 599.416L287.841 598.826ZM292.093 599.507L292.626 596.148L296.311 596.738L295.778 600.097L292.093 599.507Z" fill="#A7B3C6"/>
<path d="M307.661 601.016L308.999 592.607L312.355 593.14L312.911 593.231L316.267 593.765L316.823 593.855L320.18 594.389L320.735 594.48L320.826 593.923L321.416 590.235L321.506 589.679L322.096 585.991L322.187 585.435L322.776 581.747L322.867 581.19L323.457 577.502L323.547 576.946L324.137 573.258L324.228 572.702L324.817 569.014L324.908 568.458L325.498 564.769L325.588 564.213L326.178 560.525L326.269 559.969L326.859 556.281L326.949 555.725L327.539 552.036L327.63 551.48L328.219 547.792L328.31 547.236L328.9 543.548L328.99 542.992L328.435 542.901L325.078 542.368L324.523 542.277L321.166 541.743L320.61 541.653L317.254 541.119L315.009 540.767L314.918 541.324L314.328 545.012L314.238 545.568L313.648 549.256L313.557 549.812L312.968 553.5L312.877 554.056L312.287 557.745L312.197 558.301L311.607 561.989L311.516 562.545L310.927 566.233L310.836 566.789L310.246 570.478L310.155 571.034L309.566 574.722L309.475 575.278L308.885 578.966L308.795 579.522L308.205 583.211L308.114 583.767L307.525 587.455L307.434 588.011L306.844 591.699L306.754 592.255L305.416 600.664L307.661 601.016ZM313.013 592.675L313.603 588.987L316.959 589.52L316.37 593.208L313.013 592.675ZM323.048 551.253L322.459 554.942L319.102 554.408L319.692 550.72L323.048 551.253ZM319.771 550.153L320.361 546.464L323.717 546.998L323.128 550.686L319.771 550.153ZM322.368 555.498L321.778 559.186L318.422 558.653L319.012 554.964L322.368 555.498ZM321.688 559.753L321.098 563.442L317.742 562.908L318.331 559.22L321.688 559.753ZM321.007 564.009L320.418 567.697L317.061 567.164L317.651 563.476L321.007 564.009ZM320.327 568.265L319.737 571.953L316.381 571.42L316.97 567.731L320.327 568.265ZM319.647 572.52L319.057 576.209L315.7 575.675L316.29 571.987L319.647 572.52ZM318.966 576.776L318.376 580.464L315.02 579.931L315.61 576.243L318.966 576.776ZM318.286 581.032L317.696 584.72L314.34 584.186L314.929 580.498L318.286 581.032ZM317.605 585.287L317.016 588.976L313.659 588.442L314.249 584.754L317.605 585.287ZM320.259 593.855L316.902 593.322L317.492 589.634L320.849 590.167L320.259 593.855ZM320.939 589.6L317.583 589.066L318.172 585.378L321.529 585.911L320.939 589.6ZM321.62 585.344L318.263 584.811L318.853 581.122L322.209 581.656L321.62 585.344ZM322.3 581.088L318.943 580.555L319.533 576.867L322.89 577.4L322.3 581.088ZM322.98 576.833L319.624 576.299L320.214 572.611L323.57 573.144L322.98 576.833ZM323.661 572.577L320.304 572.044L320.894 568.355L324.25 568.889L323.661 572.577ZM324.341 568.321L320.985 567.788L321.574 564.1L324.931 564.633L324.341 568.321ZM325.022 564.066L321.665 563.532L322.255 559.844L325.611 560.378L325.022 564.066ZM325.702 559.81L322.345 559.277L322.935 555.588L326.292 556.122L325.702 559.81ZM326.382 555.554L323.026 555.021L323.615 551.333L326.972 551.866L326.382 555.554ZM327.063 551.299L323.706 550.765L324.296 547.077L327.652 547.611L327.063 551.299ZM328.321 543.355L327.732 547.043L324.375 546.51L324.965 542.822L328.321 543.355ZM324.398 542.731L323.808 546.419L320.452 545.886L321.041 542.197L324.398 542.731ZM317.118 541.573L320.474 542.107L319.885 545.795L316.528 545.261L317.118 541.573ZM316.437 545.829L319.794 546.362L319.204 550.05L315.848 549.517L316.437 545.829ZM315.757 550.085L319.114 550.618L318.524 554.306L315.167 553.773L315.757 550.085ZM315.077 554.34L318.433 554.874L317.844 558.562L314.487 558.028L315.077 554.34ZM314.396 558.596L317.753 559.129L317.163 562.817L313.807 562.284L314.396 558.596ZM313.716 562.851L317.073 563.385L316.483 567.073L313.126 566.54L313.716 562.851ZM313.036 567.107L316.392 567.64L315.803 571.329L312.446 570.795L313.036 567.107ZM312.355 571.363L315.712 571.896L315.122 575.584L311.766 575.051L312.355 571.363ZM311.675 575.618L315.031 576.152L314.442 579.84L311.085 579.307L311.675 575.618ZM310.995 579.874L314.351 580.407L313.761 584.096L310.405 583.562L310.995 579.874ZM310.314 584.13L313.671 584.663L313.081 588.351L309.725 587.818L310.314 584.13ZM309.634 588.385L312.99 588.919L312.401 592.607L309.044 592.074L309.634 588.385Z" fill="#A7B3C6"/>
<path d="M307.277 604.534L315.679 605.873L315.146 609.232L315.056 609.788L314.523 613.147L314.432 613.703L313.899 617.062L313.808 617.618L314.364 617.709L318.049 618.299L318.605 618.39L322.29 618.98L322.846 619.071L326.531 619.661L327.087 619.752L330.772 620.342L331.328 620.433L335.013 621.023L335.569 621.114L339.254 621.704L339.81 621.795L343.495 622.385L344.051 622.475L347.736 623.066L348.292 623.156L351.977 623.746L352.533 623.837L356.218 624.427L356.774 624.518L360.459 625.108L361.015 625.199L364.7 625.789L365.256 625.88L365.346 625.324L365.879 621.965L365.97 621.409L366.503 618.049L366.594 617.493L367.127 614.134L367.478 611.887L366.922 611.797L363.237 611.206L362.681 611.116L358.996 610.526L358.441 610.435L354.755 609.845L354.2 609.754L350.514 609.164L349.959 609.073L346.273 608.483L345.718 608.392L342.032 607.802L341.477 607.711L337.791 607.121L337.236 607.03L333.55 606.44L332.995 606.349L329.309 605.759L328.754 605.668L325.068 605.078L324.513 604.988L320.827 604.397L320.272 604.307L316.587 603.716L316.031 603.626L307.628 602.287L307.277 604.534ZM315.611 609.89L319.297 610.48L318.764 613.839L315.078 613.249L315.611 609.89ZM357 619.933L353.315 619.343L353.848 615.984L357.533 616.574L357 619.933ZM358.1 616.654L361.786 617.244L361.253 620.603L357.567 620.013L358.1 616.654ZM352.759 619.252L349.074 618.662L349.607 615.303L353.292 615.893L352.759 619.252ZM348.507 618.572L344.822 617.981L345.355 614.622L349.04 615.212L348.507 618.572ZM344.255 617.891L340.57 617.301L341.102 613.941L344.788 614.532L344.255 617.891ZM340.003 617.21L336.317 616.62L336.85 613.26L340.535 613.851L340.003 617.21ZM335.75 616.529L332.065 615.939L332.598 612.58L336.283 613.17L335.75 616.529ZM331.498 615.848L327.813 615.258L328.346 611.899L332.031 612.489L331.498 615.848ZM327.246 615.167L323.56 614.577L324.093 611.218L327.779 611.808L327.246 615.167ZM322.993 614.486L319.308 613.896L319.841 610.537L323.526 611.127L322.993 614.486ZM314.432 617.142L314.965 613.783L318.65 614.373L318.117 617.732L314.432 617.142ZM318.684 617.823L319.217 614.463L322.903 615.054L322.37 618.413L318.684 617.823ZM322.937 618.503L323.47 615.144L327.155 615.734L326.622 619.094L322.937 618.503ZM327.189 619.184L327.722 615.825L331.407 616.415L330.874 619.774L327.189 619.184ZM331.441 619.865L331.974 616.506L335.66 617.096L335.127 620.455L331.441 619.865ZM335.693 620.546L336.227 617.187L339.912 617.777L339.379 621.136L335.693 620.546ZM339.946 621.227L340.479 617.868L344.164 618.458L343.631 621.817L339.946 621.227ZM344.198 621.908L344.731 618.549L348.416 619.139L347.883 622.498L344.198 621.908ZM348.45 622.589L348.983 619.23L352.669 619.82L352.136 623.179L348.45 622.589ZM352.703 623.27L353.236 619.911L356.921 620.501L356.388 623.86L352.703 623.27ZM356.955 623.951L357.488 620.592L361.173 621.182L360.64 624.541L356.955 623.951ZM364.893 625.21L361.207 624.62L361.74 621.261L365.426 621.851L364.893 625.21ZM365.516 621.284L361.831 620.694L362.364 617.335L366.049 617.925L365.516 621.284ZM366.673 613.998L366.14 617.357L362.455 616.767L362.988 613.408L366.673 613.998ZM362.421 613.317L361.888 616.676L358.202 616.086L358.735 612.727L362.421 613.317ZM358.168 612.636L357.635 615.995L353.95 615.405L354.483 612.046L358.168 612.636ZM353.916 611.955L353.383 615.315L349.698 614.724L350.231 611.365L353.916 611.955ZM349.664 611.275L349.131 614.634L345.446 614.044L345.978 610.684L349.664 611.275ZM345.411 610.594L344.879 613.953L341.193 613.363L341.726 610.004L345.411 610.594ZM341.159 609.913L340.626 613.272L336.941 612.682L337.474 609.323L341.159 609.913ZM336.907 609.232L336.374 612.591L332.689 612.001L333.222 608.642L336.907 609.232ZM332.655 608.551L332.122 611.91L328.436 611.32L328.969 607.961L332.655 608.551ZM328.402 607.87L327.869 611.229L324.184 610.639L324.717 607.28L328.402 607.87ZM324.15 607.189L323.617 610.548L319.932 609.958L320.465 606.599L324.15 607.189ZM319.898 606.508L319.365 609.867L315.679 609.277L316.212 605.918L319.898 606.508Z" fill="#A7B3C6"/>
<path d="M493.438 708.384V920.803H-1187.07L-1188 839.14C-1188 839.14 -970.192 806.638 -699.938 771.254C-690.073 769.96 -680.128 768.655 -670.127 767.361C-656.27 765.557 -642.289 763.752 -628.216 761.959C-617.296 760.552 -606.308 759.156 -595.275 757.749C-581.214 755.967 -567.074 754.186 -552.866 752.415H-552.854C-551.924 752.29 -550.983 752.177 -550.053 752.064C-539.848 750.781 -529.608 749.499 -519.346 748.239C-519.006 748.194 -518.666 748.16 -518.337 748.114C-504.321 746.378 -490.249 744.653 -476.165 742.939H-476.131C-474.102 742.69 -472.083 742.451 -470.053 742.202C-459.553 740.931 -449.03 739.66 -438.507 738.4C-424.299 736.709 -410.079 735.018 -395.893 733.361C-395.871 733.361 -395.859 733.361 -395.837 733.361C-393.909 733.134 -391.97 732.907 -390.042 732.68C-378.034 731.273 -366.059 729.889 -354.096 728.516C-353.688 728.47 -353.291 728.425 -352.906 728.379C-339.854 726.881 -326.825 725.406 -313.852 723.942C-313.818 723.942 -313.796 723.942 -313.762 723.931C-312.514 723.795 -311.256 723.658 -310.008 723.511C-291.434 721.434 -272.962 719.391 -254.638 717.417C-246.371 716.52 -238.128 715.635 -229.918 714.761H-229.85C-229.85 714.761 -229.77 714.761 -229.725 714.75C-229.634 714.739 -229.509 714.727 -229.362 714.716C-229.283 714.705 -229.192 714.705 -229.101 714.693C-193.836 710.937 -159.216 707.408 -125.561 704.173C-90.0908 700.757 -55.7096 697.648 -22.8025 694.924C-22.7344 694.924 -22.6665 694.913 -22.5984 694.913C12.0663 692.053 45.0869 689.613 75.9869 687.673C127.65 684.45 173.404 682.634 211.085 682.634C352.012 682.634 404.151 693.733 436.672 701.484C440.845 702.471 444.689 703.402 448.352 704.264C461.132 707.215 471.768 709.133 486.407 708.735C488.641 708.679 490.977 708.565 493.438 708.395V708.384Z" fill="#779AF2"/>
<path d="M493.439 708.383V710.801C476.77 714.296 461.269 716.361 442.026 716.361C419.019 716.361 390.681 713.411 348.578 706.431C227.302 686.311 80.2409 689.012 -22.5967 694.901C12.0681 692.042 45.0886 689.602 75.9887 687.661C163.28 685.959 262.727 688.739 349.145 703.072C421.286 715.045 452.754 715.079 486.409 708.724C488.643 708.667 490.979 708.554 493.439 708.383Z" fill="#8FB4EF"/>
<path d="M493.437 722.126V725.587C476.042 728.765 459.781 730.648 439.846 730.648C414.355 730.648 382.866 727.573 335.319 720.219C107.827 684.982 -210.721 713.002 -229.103 714.681C-193.837 710.925 -159.217 707.396 -125.562 704.161C-8.75412 697.965 183.801 693.312 335.841 716.849C420.433 729.945 453.919 729.377 493.437 722.126Z" fill="#8FB4EF"/>
<path d="M493.436 736.845V740.306C475.372 743.2 458.397 744.925 437.816 744.937C409.83 744.937 375.177 741.748 322.051 733.997C79.625 698.646 -271.762 721.048 -313.764 723.919C-312.516 723.783 -311.258 723.647 -310.01 723.499C-291.436 721.423 -272.964 719.38 -254.64 717.405C-140.826 711.334 124.688 701.779 322.539 730.626C414.581 744.051 450.901 743.722 493.436 736.845Z" fill="#8FB4EF"/>
<path d="M493.437 751.519V754.934C475.011 757.533 457.299 759.099 435.98 759.099C405.307 759.099 367.195 755.854 308.774 747.785C45.4948 711.368 -345.036 730.615 -395.837 733.35C-393.909 733.123 -391.97 732.896 -390.042 732.669C-378.034 731.262 -366.059 729.877 -354.096 728.504C-353.688 728.459 -353.291 728.413 -352.906 728.368C-244.466 723.363 77.6422 712.367 309.239 744.403C408.732 758.169 447.864 758.055 493.437 751.519Z" fill="#8FB4EF"/>
<path d="M493.439 766.113V769.54C474.434 771.946 456.121 773.399 434.293 773.399C401.079 773.399 359.747 770.04 295.509 761.562C136.439 740.568 -63.2149 736.698 -202.702 737.095C-338.503 737.504 -453.36 741.986 -476.13 742.94C-474.1 742.69 -472.082 742.452 -470.052 742.202C-459.552 740.931 -449.029 739.66 -438.506 738.4C-329.454 734.338 37.7971 724.113 295.951 758.181C402.236 772.207 445.609 772.173 493.439 766.113Z" fill="#8FB4EF"/>
<path d="M493.438 780.695V784.122C473.901 786.346 455.021 787.697 432.75 787.697C396.951 787.697 352.41 784.224 282.23 775.338C110.754 753.64 -106.396 748.601 -258.368 748.193C-407.073 747.784 -529.574 751.631 -552.854 752.414C-551.924 752.29 -550.982 752.176 -550.053 752.063C-539.847 750.78 -529.608 749.498 -519.345 748.238C-519.005 748.193 -518.665 748.159 -518.336 748.113C-470.756 746.74 -374.178 744.482 -258.368 744.788C-106.306 745.197 111.004 750.236 282.661 771.968C396.35 786.358 442.581 786.505 493.438 780.695Z" fill="#8FB4EF"/>
<path d="M493.437 795.256V798.683C473.389 800.749 453.987 801.997 431.32 801.997C392.936 801.997 345.174 798.411 268.95 789.128C85.058 766.703 -149.567 760.53 -314.023 759.293C-481.042 758.033 -611.4 761.483 -628.217 761.96C-617.297 760.553 -606.309 759.157 -595.276 757.75C-543.556 756.637 -439.063 754.946 -314.012 755.888C-149.465 757.125 85.3074 763.31 269.37 785.746C390.464 800.51 439.53 800.839 493.437 795.256Z" fill="#8FB4EF"/>
<path d="M493.439 809.782V813.209C472.914 815.138 453.036 816.307 430.017 816.307C389.025 816.307 338.065 812.608 255.684 802.905C-92.7661 761.858 -620.516 769.767 -699.938 771.254C-690.072 769.96 -680.127 768.655 -670.126 767.362C-635.11 766.862 -579.048 766.272 -509.695 766.272C-304.326 766.272 17.7482 771.447 256.07 799.523C384.58 814.662 436.458 815.15 493.439 809.782Z" fill="#8FB4EF"/>
<path d="M476.735 769.108C476.406 770.391 474.309 771.718 470.771 773.057C460.474 776.984 437.943 781.115 410.989 785.019C405.059 785.87 398.924 786.721 392.653 787.549C374.329 789.978 354.87 792.27 336.375 794.313C330.808 794.926 325.331 795.516 319.99 796.083C297.515 798.466 277.58 800.396 264.404 801.621C254.062 802.586 247.882 803.131 247.882 803.131L-131.366 802.847C-131.366 802.847 -47.6127 794.767 53.9321 786.324C61.4842 785.7 69.1383 785.075 76.8605 784.44C101.512 782.431 126.89 780.434 152.109 778.561C159.344 778.017 166.567 777.483 173.756 776.973C198.386 775.191 222.618 773.557 245.603 772.161C252.327 771.752 258.95 771.367 265.436 771.003C291.868 769.505 316.203 768.393 337.022 767.826C347.579 767.542 357.229 767.395 365.79 767.406H365.801C404.548 767.463 419.993 764.512 422.896 760.041C423.565 759.019 423.576 757.919 423.054 756.75C421.467 753.22 415.026 749.124 407.338 744.97C404.888 743.642 402.303 742.315 399.718 740.987C389.784 735.903 379.737 730.978 376.234 727.13C375.032 725.803 374.601 724.6 375.236 723.567C377.368 720.072 382.845 716.747 390.374 713.751C392.597 712.854 395 712.003 397.54 711.175H397.552C408.721 707.566 422.68 704.581 436.673 702.607C440.846 703.594 444.69 704.524 448.353 705.387C436.809 706.896 424.302 709.291 416.217 712.99C414.209 713.91 412.486 714.908 411.102 715.986C408.347 718.154 406.986 720.662 407.655 723.567C407.927 724.759 408.494 725.927 409.311 727.085C410.173 728.333 411.329 729.559 412.735 730.762C417.555 734.938 425.197 738.853 433.555 742.621C436.106 743.779 438.737 744.913 441.368 746.048C449.248 749.441 457.175 752.721 463.547 755.955C465.452 756.931 467.221 757.907 468.809 758.872C474.354 762.276 477.631 765.658 476.735 769.108Z" fill="#E7EADF"/>
<path d="M469.625 807.32H252.429C252.429 785.667 273.078 790.536 273.078 790.536C286.424 777.178 302.685 778.71 302.685 778.71C321.883 759.736 340.48 756.07 355.527 758.102C375.836 760.871 389.648 774.046 389.648 774.046C426.467 763.379 432.499 789.412 432.499 789.412C465.679 787.301 469.625 807.32 469.625 807.32Z" fill="#3961B1"/>
<path d="M469.626 807.32H284.69C288.342 800.284 299.114 784.045 322.564 778.847C322.564 778.847 332.679 764.094 355.528 758.102C375.837 760.871 389.649 774.047 389.649 774.047C426.468 763.379 432.5 789.412 432.5 789.412C465.68 787.302 469.626 807.32 469.626 807.32Z" fill="#324EA5"/>
<path d="M346.581 778.847C346.581 778.847 352.33 776.475 357.682 778.847C357.682 778.847 358.498 773.275 366.436 773.275C366.436 773.275 360.188 770.949 356.503 775.522C356.503 775.522 350.527 774.206 346.569 778.847H346.581Z" fill="#3961B1"/>
<path d="M493.438 807.206V920.668H-1187.07V786.893C-804.806 779.789 -466.697 781.218 -195.843 785.656C-59.8145 787.88 59.2614 790.865 158.436 793.895C158.47 793.906 158.516 793.906 158.561 793.906C372.094 800.431 493.438 807.206 493.438 807.206Z" fill="#90B3F1"/>
<path d="M456.788 851.307C456.572 855.528 418.086 859.024 363.35 862.054C270.39 867.217 130.551 871.076 51.4926 874.945C11.3055 876.931 -13.1763 878.917 -7.76746 881.085C2.34735 885.148 72.4254 893.659 146.007 901.762C234.693 911.521 328.459 920.668 328.459 920.668H-396.099C-396.099 920.668 -206.208 900.377 -101.193 894.828C44.2354 887.145 -749.368 886.759 -675.662 868.602C-601.955 850.444 46.3785 856.708 53.8852 851.307C61.4033 845.905 -450.006 802.781 -421.658 799.376C-408.209 797.765 -350.219 785.758 -195.844 785.656C-59.8155 787.88 59.2602 790.865 158.435 793.895C158.469 793.906 158.514 793.906 158.56 793.906C170.534 794.746 497.145 817.579 452.615 819.803C407.257 822.073 1.30414 797.107 -20.2408 805.051C-42.6816 813.324 457.547 836.281 456.788 851.307Z" fill="#F3F8E7"/>
</g>
</g>
<defs>
<linearGradient id="paint0_linear_2858_44068" x1="-346.5" y1="921" x2="-346.5" y2="-7" gradientUnits="userSpaceOnUse">
<stop stop-color="#FEFEFE"/>
<stop offset="0.23" stop-color="#FFF3E2"/>
<stop offset="0.42" stop-color="#F2F1ED"/>
<stop offset="0.73" stop-color="#EEF3FF"/>
<stop offset="1" stop-color="#EEF3FF"/>
</linearGradient>
<clipPath id="clip0_2858_44068">
<rect width="375" height="807" fill="white"/>
</clipPath>
</defs>
</svg>
