<svg width="21" height="20" viewBox="0 0 21 20" fill="none" xmlns="http://www.w3.org/2000/svg">
<path d="M16.6989 10.636C16.6751 8.10926 18.8603 6.88002 18.9603 6.82279C17.7227 5.09573 15.8045 4.85976 15.1304 4.84094C13.5194 4.67866 11.9567 5.76366 11.136 5.76366C10.2989 5.76366 9.03517 4.85662 7.67311 4.88328C5.92037 4.90915 4.28066 5.88047 3.38136 7.38881C1.52542 10.4643 2.9096 14.9838 4.68773 17.4697C5.5772 18.688 6.61656 20.0466 7.97698 19.9988C9.30791 19.947 9.80507 19.1874 11.4112 19.1874C13.0026 19.1874 13.4694 19.9988 14.8569 19.9682C16.2853 19.947 17.1846 18.7452 18.0429 17.5168C19.0708 16.1221 19.4836 14.747 19.5 14.6765C19.4672 14.6655 16.7267 13.6636 16.6989 10.636ZM14.078 3.2056C14.7938 2.34874 15.2836 1.18299 15.1476 0C14.1116 0.0439017 12.8158 0.685964 12.0697 1.52401C11.4096 2.2625 10.8199 3.47293 10.9722 4.61124C12.136 4.69434 13.331 4.04914 14.078 3.2056Z" fill="white"/>
</svg>
