<svg width="21" height="20" viewBox="0 0 21 20" fill="none" xmlns="http://www.w3.org/2000/svg">
<g clip-path="url(#clip0_2890_130)">
<path d="M2.5 2.10451V17.8947C2.50011 17.9289 2.5105 17.9624 2.52987 17.9909C2.54925 18.0194 2.57674 18.0416 2.60891 18.0548C2.64107 18.0679 2.67647 18.0715 2.71068 18.0649C2.74488 18.0584 2.77637 18.0421 2.80118 18.018L11.1635 10L2.80118 1.98116C2.77637 1.95711 2.74488 1.9408 2.71068 1.93427C2.67647 1.92774 2.64107 1.93128 2.60891 1.94445C2.57674 1.95763 2.54925 1.97984 2.52987 2.00832C2.5105 2.03679 2.50011 2.07025 2.5 2.10451Z" fill="white"/>
<path d="M14.6697 6.70535L4.1845 1.02571L4.17796 1.02209C3.99734 0.925664 3.8257 1.16593 3.97363 1.30575L12.1929 9.0329L14.6697 6.70535Z" fill="white"/>
<path d="M3.97442 18.6942C3.82567 18.8341 3.9973 19.0743 4.17874 18.9779L4.18528 18.9743L14.6697 13.2946L12.1929 10.9663L3.97442 18.6942Z" fill="white"/>
<path d="M18.9025 8.99554L15.9745 7.41009L13.2214 10L15.9745 12.5887L18.9025 11.0045C19.699 10.5717 19.699 9.42826 18.9025 8.99554Z" fill="white"/>
</g>
<defs>
<clipPath id="clip0_2890_130">
<rect width="17" height="18" fill="white" transform="translate(2.5 1)"/>
</clipPath>
</defs>
</svg>
