<svg width="150" height="46" viewBox="0 0 150 46" fill="none" xmlns="http://www.w3.org/2000/svg">
<g clip-path="url(#clip0_2858_44310)">
<path d="M63.272 0.342834C64.5395 0.342834 64.714 0.880164 65.1695 1.68382L76.6315 22.6275L72.2672 28.8935L56.4561 0.596171C59.6763 0.596171 60.8808 0.342834 63.272 0.342834Z" fill="#1232A2"/>
<path fill-rule="evenodd" clip-rule="evenodd" d="M148.216 7.73041C149.507 10.2179 149.924 12.7055 150 15.4609V29.4292C150 30.96 149.533 30.96 147.988 30.96C144.023 30.96 143.282 27.3659 143.282 22.3494C143.256 21.3489 143.262 20.3566 143.282 19.3777C143.282 19.1389 143.283 18.9005 143.283 18.6627C143.293 15.6985 143.303 12.8159 141.764 10.2562C140.663 8.38099 139.107 7.46253 137.019 7.04156C135.121 6.69714 132.996 6.92675 131.212 8.26619C128.825 9.7397 128.383 12.0244 127.873 14.6578C127.833 14.8663 127.653 16.4389 127.611 16.6515C127.068 20.7878 126.464 22.4038 123.418 25.7299C120.572 28.7915 116.523 30.6921 111.703 31.5723C105.706 32.6822 99.1397 30.9983 94.5471 26.7121C91.2829 23.6123 89.6128 19.8619 89.6128 15.4226C89.6128 13.2412 90.1063 11.1364 91.0172 9.10812C91.3588 8.381 91.7383 7.69214 92.1559 7.04156H91.4727C90.9792 7.04156 90.4858 7.30945 90.2201 7.76868L78.0364 29.1996C77.5903 29.9597 76.4043 30.5008 75.3036 30.5008C74.0131 30.5008 72.7173 29.729 72.11 28.6574L69.8953 24.6456C72.1876 24.6456 73.7023 23.0508 74.3537 21.9414L85.0582 2.90845C86.0071 1.3394 87.6392 0.300923 89.461 0.262654H104.795C109.046 0.262654 112.652 1.53075 115.574 4.55404C116.789 5.81694 117.738 7.15637 118.459 8.68715C119.18 10.2179 119.522 11.6339 119.522 12.9351C119.522 14.7337 118.876 16.1497 117.586 17.1447C116.903 17.6805 116.258 17.9867 115.536 18.1397C114.853 18.2928 113.639 18.3693 111.969 18.3693H96.9003C97.5076 20.0915 98.6462 21.3544 100.013 22.5407C106.579 28.1664 119.745 24.2093 121.432 17.5521C122.136 14.7747 121.742 6.68218 121.742 6.68218V1.46174C121.704 0.390197 122.056 0.0153418 122.677 0.0153418C125.819 -0.179515 126.733 0.4592 127.454 2.44922C128.479 1.72209 129.694 1.14805 131.06 0.727086C137.209 -1.22466 144.61 0.841896 148.216 7.73041ZM112.842 12.2845H97.0142C97.0142 12.2845 98.5622 6.53578 104.4 6.53578C110.498 6.53578 112.842 12.2845 112.842 12.2845Z" fill="#4E6EF3"/>
<path fill-rule="evenodd" clip-rule="evenodd" d="M61.5644 2.06691C62.2106 0.994371 63.4236 0.34442 63.4236 0.34442H57.2368C55.2632 0.382689 54.542 1.53078 54.0106 2.79367C51.4676 1.03327 48.5071 0.0765328 45.4327 0.0765328C38.8284 0.0765328 32.6331 4.67189 30.7733 11.0629C30.7733 11.0629 29.4914 8.95507 26.6068 5.51081C23.7222 2.06655 19.5091 0.0765328 15.0683 0.0765328C6.83198 0.0765328 0.0759109 6.85024 0 15.1547V44.5075C0 45.3877 0.645243 46 1.67004 46C3.71964 46 6.56629 43.8186 6.56629 38.9584L6.52834 27.822C9.0334 29.5441 11.9939 30.4626 15.0304 30.4626C21.6346 30.4626 27.5936 25.985 29.4534 19.594C29.4534 19.594 31.4203 22.0717 33.5526 24.6839C36.4194 28.1956 40.7262 30.4626 45.3568 30.4626C48.4312 30.4626 51.3917 29.5441 53.9347 27.7454C54.2384 29.3145 55.5668 30.5008 57.1609 30.5008H59.0207C60.0086 30.5008 60.4631 30.0755 60.4631 29.0083L60.4251 6.7737C60.456 5.2372 60.5769 3.70564 61.5644 2.06691ZM15.0683 23.8419C10.3998 23.8419 6.56629 20.015 6.56629 15.2695C6.56629 10.5624 10.3618 6.69716 15.0683 6.69716C19.7368 6.69716 23.5703 10.5241 23.5703 15.2695C23.5703 20.015 19.7368 23.8419 15.0683 23.8419ZM45.4327 23.8419C40.7642 23.8419 36.9307 20.015 36.9307 15.2695C36.9307 10.5624 40.7262 6.69716 45.4327 6.69716C50.1012 6.69716 53.9347 10.5241 53.9347 15.2695C53.9347 20.015 50.1012 23.8419 45.4327 23.8419Z" fill="#4E6EF3"/>
</g>
<defs>
<clipPath id="clip0_2858_44310">
<rect width="150" height="46" fill="white"/>
</clipPath>
</defs>
</svg>
